0
SECTION
2
HEADER
9
$INSUNITS
70
4
9
$ACADVER
1
AC1014
9
$HANDSEED
5
FFFF
0
ENDSEC
0
SECTION
2
TABLES
0
TABLE
2
VPORT
5
8
100
AcDbSymbolTable
0
ENDTAB
0
TABLE
2
LTYPE
5
5
100
AcDbSymbolTable
0
LTYPE
5
14
100
AcDbSymbolTableRecord
100
AcDbLinetypeTableRecord
2
BYBLOCK
70
0
0
LTYPE
5
15
100
AcDbSymbolTableRecord
100
AcDbLinetypeTableRecord
2
BYLAYER
70
0
0
ENDTAB
0
TABLE
2
LAYER
5
2
100
AcDbSymbolTable
70
2
0
LAYER
5
50
100
AcDbSymbolTableRecord
100
AcDbLayerTableRecord
2
0
70
0
6
CONTINUOUS
0
ENDTAB
0
TABLE
2
STYLE
5
3
100
AcDbSymbolTable
70
1
0
STYLE
5
11
100
AcDbSymbolTableRecord
100
AcDbTextStyleTableRecord
2
STANDARD
70
0
0
ENDTAB
0
TABLE
2
VIEW
5
6
100
AcDbSymbolTable
70
0
0
ENDTAB
0
TABLE
2
UCS
5
7
100
AcDbSymbolTable
70
0
0
ENDTAB
0
TABLE
2
APPID
5
9
100
AcDbSymbolTable
70
2
0
APPID
5
12
100
AcDbSymbolTableRecord
100
AcDbRegAppTableRecord
2
ACAD
70
0
0
ENDTAB
0
TABLE
2
DIMSTYLE
5
A
100
AcDbSymbolTable
70
1
0
ENDTAB
0
TABLE
2
BLOCK_RECORD
5
1
100
AcDbSymbolTable
70
1
0
BLOCK_RECORD
5
1F
100
AcDbSymbolTableRecord
100
AcDbBlockTableRecord
2
*MODEL_SPACE
0
BLOCK_RECORD
5
1B
100
AcDbSymbolTableRecord
100
AcDbBlockTableRecord
2
*PAPER_SPACE
0
ENDTAB
0
ENDSEC
0
SECTION
2
BLOCKS
0
BLOCK
5
20
100
AcDbEntity
100
AcDbBlockBegin
2
*MODEL_SPACE
0
ENDBLK
5
21
100
AcDbEntity
100
AcDbBlockEnd
0
BLOCK
5
1C
100
AcDbEntity
100
AcDbBlockBegin
2
*PAPER_SPACE
0
ENDBLK
5
1D
100
AcDbEntity
100
AcDbBlockEnd
0
ENDSEC
0
SECTION
2
ENTITIES
0
LWPOLYLINE
5
100
100
AcDbEntity
8
OUTER_PROFILES
100
AcDbPolyline
90
4
70
1
43
0.0
10
0
20
99.999999999999986
10
200
20
99.999999999999986
10
200
20
0
10
0
20
0
0
LWPOLYLINE
5
101
100
AcDbEntity
8
INTERIOR_PROFILES
100
AcDbPolyline
90
8
70
1
43
0.0
10
20.79799999999949
20
37.999999999999957
10
31.797999999999433
20
37.999999999999957
42
0.41421356237308982
10
32.797999999999433
20
38.999999999999972
10
32.797999999999433
20
50.999999999999957
42
0.41421356237309503
10
31.797999999999433
20
52.000000000000014
10
20.797999999999494
20
51.999999999999972
42
0.41421356237309115
10
19.797999999999476
20
51
10
19.79799999999949
20
39
42
0.41421356237309503
0
LWPOLYLINE
5
102
100
AcDbEntity
8
INTERIOR_PROFILES
100
AcDbPolyline
90
8
70
1
43
0.0
10
88.406984261763171
20
84.226765997063922
10
93.406984261763142
20
84.226765997063907
42
0.41421356237309503
10
96.406984261763171
20
87.22676599706395
10
96.406984261763156
20
92.226765997063879
42
0.41421356237309503
10
93.406984261763142
20
95.226765997063893
10
88.406984261763185
20
95.226765997063922
42
0.41421356237309503
10
85.406984261763142
20
92.226765997063879
10
85.406984261763171
20
87.226765997063907
42
0.41421356237308982
0
CIRCLE
5
103
100
AcDbEntity
8
INTERIOR_PROFILES
100
AcDbCircle
10
-117.40698426176316
20
9.7267659970639109
30
0
40
1.5500000000000025
210
0
220
0
230
-1
0
LWPOLYLINE
5
104
100
AcDbEntity
8
INTERIOR_PROFILES
100
AcDbPolyline
90
8
70
1
43
0.0
10
96.406984261763114
20
55.226765997063922
10
96.406984261763156
20
60.226765997063922
42
0.41421356237309503
10
93.406984261763142
20
63.226765997063943
10
88.406984261763185
20
63.226765997063943
42
0.41421356237309503
10
85.406984261763171
20
60.226765997063922
10
85.406984261763171
20
55.226765997063922
42
0.41421356237309331
10
88.406984261763171
20
52.226765997063893
10
93.406984261763142
20
52.22676599706395
42
0.41421356237309503
0
CIRCLE
5
105
100
AcDbEntity
8
INTERIOR_PROFILES
100
AcDbCircle
10
-160.976
20
86.249999999999986
30
0
40
1.5499999999999936
210
0
220
0
230
-1
0
CIRCLE
5
106
100
AcDbEntity
8
INTERIOR_PROFILES
100
AcDbCircle
10
-75.045015738236813
20
60.499999999999986
30
0
40
1.5499999999999936
210
0
220
0
230
-1
0
CIRCLE
5
107
100
AcDbEntity
8
INTERIOR_PROFILES
100
AcDbCircle
10
-47.247999999999749
20
5.8517659970641311
30
0
40
0.90000000000000746
210
0
220
0
230
-1
0
LWPOLYLINE
5
108
100
AcDbEntity
8
INTERIOR_PROFILES
100
AcDbPolyline
90
4
70
1
43
0.0
10
42.29799999999976
20
4.2267659970641347
10
42.29799999999976
20
29.226765997064135
10
27.927999999999749
20
29.226765997064135
10
27.927999999999749
20
4.2267659970641347
0
LWPOLYLINE
5
109
100
AcDbEntity
8
INTERIOR_PROFILES
100
AcDbPolyline
90
8
70
1
43
0.0
10
104.40698426176317
20
4.2267659970639215
10
109.40698426176313
20
4.2267659970639038
42
0.41421356237309503
10
112.40698426176317
20
7.2267659970639464
10
112.40698426176316
20
12.226765997063875
42
0.41421356237309503
10
109.40698426176313
20
15.2267659970639
10
104.40698426176318
20
15.226765997063918
42
0.41421356237309503
10
101.40698426176314
20
12.226765997063875
10
101.40698426176316
20
7.2267659970639109
42
0.41421356237308982
0
CIRCLE
5
110
100
AcDbEntity
8
INTERIOR_PROFILES
100
AcDbCircle
10
-18.047999999999753
20
29.226765997064135
30
0
40
1.5500000000000114
210
0
220
0
230
-1
0
LWPOLYLINE
5
111
100
AcDbEntity
8
INTERIOR_PROFILES
100
AcDbPolyline
90
8
70
1
43
0.0
10
96.406984261763171
20
23.226765997063961
10
96.406984261763156
20
28.22676599706389
42
0.41421356237309503
10
93.406984261763142
20
31.226765997063914
10
88.406984261763185
20
31.226765997063914
42
0.41421356237309503
10
85.406984261763171
20
28.22676599706389
10
85.406984261763171
20
23.22676599706389
42
0.41421356237308637
10
88.406984261763171
20
20.226765997063936
10
93.406984261763142
20
20.226765997063918
42
0.41421356237309503
0
CIRCLE
5
112
100
AcDbEntity
8
INTERIOR_PROFILES
100
AcDbCircle
10
-18.047999999999753
20
83.273234002935823
30
0
40
2.5
210
0
220
0
230
-1
0
CIRCLE
5
113
100
AcDbEntity
8
INTERIOR_PROFILES
100
AcDbCircle
10
-18.047999999999753
20
22.976765997064135
30
0
40
2.5
210
0
220
0
230
-1
0
CIRCLE
5
114
100
AcDbEntity
8
INTERIOR_PROFILES
100
AcDbCircle
10
-47.247999999999749
20
94.148234002935837
30
0
40
0.89999999999999858
210
0
220
0
230
-1
0
CIRCLE
5
115
100
AcDbEntity
8
INTERIOR_PROFILES
100
AcDbCircle
10
-130.976
20
79.999999999999986
30
0
40
2.5
210
0
220
0
230
-1
0
CIRCLE
5
116
100
AcDbEntity
8
INTERIOR_PROFILES
100
AcDbCircle
10
-47.247999999999749
20
72.398234002935823
30
0
40
0.90000000000001634
210
0
220
0
230
-1
0
CIRCLE
5
117
100
AcDbEntity
8
INTERIOR_PROFILES
100
AcDbCircle
10
-24.84799999999975
20
94.148234002935837
30
0
40
0.89999999999999858
210
0
220
0
230
-1
0
CIRCLE
5
118
100
AcDbEntity
8
INTERIOR_PROFILES
100
AcDbCircle
10
-160.976
20
19.999999999999982
30
0
40
2.5
210
0
220
0
230
-1
0
CIRCLE
5
119
100
AcDbEntity
8
INTERIOR_PROFILES
100
AcDbCircle
10
-61.04799999999976
20
16.726765997064117
30
0
40
3.4250000000000114
210
0
220
0
230
-1
0
CIRCLE
5
120
100
AcDbEntity
8
INTERIOR_PROFILES
100
AcDbCircle
10
-18.047999999999753
20
4.2267659970641347
30
0
40
1.5499999999999936
210
0
220
0
230
-1
0
CIRCLE
5
121
100
AcDbEntity
8
INTERIOR_PROFILES
100
AcDbCircle
10
-175.976
20
79.999999999999986
30
0
40
5.7499999999999929
210
0
220
0
230
-1
0
CIRCLE
5
122
100
AcDbEntity
8
INTERIOR_PROFILES
100
AcDbCircle
10
-145.976
20
19.999999999999982
30
0
40
5.7499999999999929
210
0
220
0
230
-1
0
CIRCLE
5
123
100
AcDbEntity
8
INTERIOR_PROFILES
100
AcDbCircle
10
-145.976
20
79.999999999999986
30
0
40
5.7499999999999929
210
0
220
0
230
-1
0
CIRCLE
5
124
100
AcDbEntity
8
INTERIOR_PROFILES
100
AcDbCircle
10
-175.976
20
19.999999999999982
30
0
40
5.7499999999999929
210
0
220
0
230
-1
0
CIRCLE
5
125
100
AcDbEntity
8
INTERIOR_PROFILES
100
AcDbCircle
10
-18.047999999999753
20
89.523234002935823
30
0
40
2.4999999999999822
210
0
220
0
230
-1
0
LWPOLYLINE
5
126
100
AcDbEntity
8
INTERIOR_PROFILES
100
AcDbPolyline
90
8
70
1
43
0.0
10
96.406984261763142
20
39.226765997063978
10
96.406984261763156
20
44.226765997063907
42
0.41421356237309503
10
93.406984261763142
20
47.226765997063929
10
88.406984261763185
20
47.226765997063929
42
0.41421356237309503
10
85.406984261763171
20
44.226765997063907
10
85.406984261763171
20
39.226765997063907
42
0.41421356237308982
10
88.406984261763171
20
36.226765997063914
10
93.406984261763142
20
36.226765997063936
42
0.41421356237309853
0
LWPOLYLINE
5
127
100
AcDbEntity
8
INTERIOR_PROFILES
100
AcDbPolyline
90
8
70
1
43
0.0
10
96.406984261763156
20
76.226765997063893
42
0.41421356237309503
10
93.406984261763142
20
79.226765997063922
10
88.406984261763185
20
79.226765997063922
42
0.41421356237309503
10
85.406984261763171
20
76.226765997063893
10
85.406984261763171
20
71.226765997063936
42
0.41421356237309331
10
88.406984261763171
20
68.226765997063907
10
93.406984261763142
20
68.226765997063893
42
0.41421356237309503
10
96.406984261763171
20
71.226765997063936
0
LWPOLYLINE
5
128
100
AcDbEntity
8
INTERIOR_PROFILES
100
AcDbPolyline
90
8
70
1
43
0.0
10
69.545015738236842
20
52.499999999999986
10
69.545015738236827
20
47.499999999999986
42
0.41421356237309331
10
72.545015738236827
20
44.499999999999957
10
77.545015738236799
20
44.499999999999957
42
0.41421356237309503
10
80.545015738236827
20
47.499999999999986
10
80.545015738236827
20
52.499999999999986
42
0.41421356237309503
10
77.545015738236799
20
55.500000000000007
10
72.545015738236856
20
55.499999999999986
42
0.41421356237309503
0
CIRCLE
5
129
100
AcDbEntity
8
INTERIOR_PROFILES
100
AcDbCircle
10
-160.976
20
79.999999999999986
30
0
40
2.5
210
0
220
0
230
-1
0
CIRCLE
5
130
100
AcDbEntity
8
INTERIOR_PROFILES
100
AcDbCircle
10
-130.976
20
19.999999999999982
30
0
40
2.5
210
0
220
0
230
-1
0
LWPOLYLINE
5
131
100
AcDbEntity
8
INTERIOR_PROFILES
100
AcDbPolyline
90
8
70
1
43
0.0
10
104.40698426176318
20
63.226765997063922
42
0.41421356237309503
10
101.40698426176317
20
60.226765997063922
10
101.40698426176316
20
55.226765997063922
42
0.41421356237309331
10
104.40698426176317
20
52.226765997063893
10
109.40698426176313
20
52.22676599706395
42
0.41421356237309503
10
112.4069842617631
20
55.226765997063922
10
112.40698426176316
20
60.226765997063922
42
0.41421356237309503
10
109.40698426176313
20
63.226765997063943
0
CIRCLE
5
132
100
AcDbEntity
8
INTERIOR_PROFILES
100
AcDbCircle
10
-75.045015738236813
20
39.500000000000014
30
0
40
1.5500000000000114
210
0
220
0
230
-1
0
LWPOLYLINE
5
133
100
AcDbEntity
8
INTERIOR_PROFILES
100
AcDbPolyline
90
8
70
1
43
0.0
10
104.40698426176318
20
95.226765997063922
42
0.41421356237309503
10
101.40698426176314
20
92.226765997063879
10
101.40698426176316
20
87.226765997063907
42
0.41421356237308982
10
104.40698426176317
20
84.226765997063922
10
109.40698426176313
20
84.226765997063907
42
0.41421356237309503
10
112.40698426176317
20
87.22676599706395
10
112.40698426176316
20
92.226765997063879
42
0.41421356237309503
10
109.40698426176313
20
95.226765997063893
0
CIRCLE
5
134
100
AcDbEntity
8
INTERIOR_PROFILES
100
AcDbCircle
10
-130.976
20
49.999999999999986
30
0
40
1.5499999999999936
210
0
220
0
230
-1
0
LWPOLYLINE
5
135
100
AcDbEntity
8
INTERIOR_PROFILES
100
AcDbPolyline
90
8
70
1
43
0.0
10
112.40698426176317
20
23.226765997063961
10
112.40698426176316
20
28.22676599706389
42
0.41421356237309503
10
109.40698426176313
20
31.226765997063914
10
104.40698426176318
20
31.226765997063914
42
0.41421356237309503
10
101.40698426176316
20
28.22676599706389
10
101.40698426176316
20
23.22676599706389
42
0.41421356237308637
10
104.40698426176317
20
20.226765997063936
10
109.40698426176313
20
20.226765997063918
42
0.41421356237309503
0
CIRCLE
5
136
100
AcDbEntity
8
INTERIOR_PROFILES
100
AcDbCircle
10
-130.976
20
13.749999999999982
30
0
40
1.5499999999999936
210
0
220
0
230
-1
0
CIRCLE
5
137
100
AcDbEntity
8
INTERIOR_PROFILES
100
AcDbCircle
10
-160.976
20
49.999999999999986
30
0
40
1.5499999999999936
210
0
220
0
230
-1
0
CIRCLE
5
138
100
AcDbEntity
8
INTERIOR_PROFILES
100
AcDbCircle
10
-117.40698426176316
20
49.999999999999986
30
0
40
1.5499999999999936
210
0
220
0
230
-1
0
CIRCLE
5
139
100
AcDbEntity
8
INTERIOR_PROFILES
100
AcDbCircle
10
-80.406984261763171
20
89.726765997063893
30
0
40
1.5500000000000114
210
0
220
0
230
-1
0
LWPOLYLINE
5
140
100
AcDbEntity
8
INTERIOR_PROFILES
100
AcDbPolyline
90
4
70
1
43
0.0
10
27.927999999999749
20
95.773234002935851
10
27.927999999999749
20
70.773234002935823
10
42.29799999999976
20
70.773234002935823
10
42.29799999999976
20
95.773234002935851
0
CIRCLE
5
141
100
AcDbEntity
8
INTERIOR_PROFILES
100
AcDbCircle
10
-18.047999999999753
20
77.023234002935823
30
0
40
2.5
210
0
220
0
230
-1
0
CIRCLE
5
142
100
AcDbEntity
8
INTERIOR_PROFILES
100
AcDbCircle
10
-18.047999999999753
20
70.773234002935823
30
0
40
1.5499999999999936
210
0
220
0
230
-1
0
CIRCLE
5
143
100
AcDbEntity
8
INTERIOR_PROFILES
100
AcDbCircle
10
-24.84799999999975
20
72.398234002935823
30
0
40
0.90000000000001634
210
0
220
0
230
-1
0
CIRCLE
5
144
100
AcDbEntity
8
INTERIOR_PROFILES
100
AcDbCircle
10
-18.047999999999753
20
10.476765997064135
30
0
40
2.5
210
0
220
0
230
-1
0
CIRCLE
5
145
100
AcDbEntity
8
INTERIOR_PROFILES
100
AcDbCircle
10
-47.247999999999749
20
27.601765997064138
30
0
40
0.90000000000001634
210
0
220
0
230
-1
0
CIRCLE
5
146
100
AcDbEntity
8
INTERIOR_PROFILES
100
AcDbCircle
10
-24.84799999999975
20
27.601765997064138
30
0
40
0.90000000000001634
210
0
220
0
230
-1
0
CIRCLE
5
147
100
AcDbEntity
8
INTERIOR_PROFILES
100
AcDbCircle
10
-18.047999999999753
20
16.726765997064135
30
0
40
2.5
210
0
220
0
230
-1
0
LWPOLYLINE
5
148
100
AcDbEntity
8
INTERIOR_PROFILES
100
AcDbPolyline
90
8
70
1
43
0.0
10
96.406984261763171
20
7.2267659970639464
10
96.406984261763156
20
12.226765997063875
42
0.41421356237309503
10
93.406984261763142
20
15.2267659970639
10
88.406984261763185
20
15.226765997063918
42
0.41421356237309503
10
85.406984261763142
20
12.226765997063875
10
85.406984261763171
20
7.2267659970639109
42
0.41421356237308982
10
88.406984261763171
20
4.2267659970639215
10
93.406984261763142
20
4.2267659970639038
42
0.41421356237309503
0
CIRCLE
5
149
100
AcDbEntity
8
INTERIOR_PROFILES
100
AcDbCircle
10
-18.047999999999753
20
95.773234002935851
30
0
40
1.5500000000000114
210
0
220
0
230
-1
0
CIRCLE
5
150
100
AcDbEntity
8
INTERIOR_PROFILES
100
AcDbCircle
10
-145.976
20
39.999999999999986
30
0
40
5.7499999999999929
210
0
220
0
230
-1
0
CIRCLE
5
151
100
AcDbEntity
8
INTERIOR_PROFILES
100
AcDbCircle
10
-160.976
20
39.999999999999986
30
0
40
2.5
210
0
220
0
230
-1
0
CIRCLE
5
152
100
AcDbEntity
8
INTERIOR_PROFILES
100
AcDbCircle
10
-175.976
20
59.999999999999986
30
0
40
5.7499999999999929
210
0
220
0
230
-1
0
CIRCLE
5
153
100
AcDbEntity
8
INTERIOR_PROFILES
100
AcDbCircle
10
-130.976
20
59.999999999999986
30
0
40
2.5
210
0
220
0
230
-1
0
CIRCLE
5
154
100
AcDbEntity
8
INTERIOR_PROFILES
100
AcDbCircle
10
-61.04799999999976
20
83.273234002935851
30
0
40
3.4250000000000114
210
0
220
0
230
-1
0
CIRCLE
5
155
100
AcDbEntity
8
INTERIOR_PROFILES
100
AcDbCircle
10
-24.84799999999975
20
5.8517659970641311
30
0
40
0.90000000000000746
210
0
220
0
230
-1
0
CIRCLE
5
156
100
AcDbEntity
8
INTERIOR_PROFILES
100
AcDbCircle
10
-145.976
20
59.999999999999986
30
0
40
5.7499999999999929
210
0
220
0
230
-1
0
LWPOLYLINE
5
157
100
AcDbEntity
8
INTERIOR_PROFILES
100
AcDbPolyline
90
8
70
1
43
0.0
10
109.40698426176313
20
36.226765997063936
42
0.41421356237309853
10
112.40698426176314
20
39.226765997063978
10
112.40698426176316
20
44.226765997063907
42
0.41421356237309503
10
109.40698426176313
20
47.226765997063929
10
104.40698426176318
20
47.226765997063929
42
0.41421356237309503
10
101.40698426176316
20
44.226765997063907
10
101.40698426176316
20
39.226765997063907
42
0.41421356237308982
10
104.40698426176317
20
36.226765997063914
0
CIRCLE
5
158
100
AcDbEntity
8
INTERIOR_PROFILES
100
AcDbCircle
10
-130.976
20
39.999999999999986
30
0
40
2.5
210
0
220
0
230
-1
0
CIRCLE
5
159
100
AcDbEntity
8
INTERIOR_PROFILES
100
AcDbCircle
10
-175.976
20
39.999999999999986
30
0
40
5.7499999999999929
210
0
220
0
230
-1
0
LWPOLYLINE
5
160
100
AcDbEntity
8
INTERIOR_PROFILES
100
AcDbPolyline
90
8
70
1
43
0.0
10
112.40698426176317
20
71.226765997063936
10
112.40698426176316
20
76.226765997063893
42
0.41421356237309503
10
109.40698426176313
20
79.226765997063922
10
104.40698426176318
20
79.226765997063922
42
0.41421356237309503
10
101.40698426176316
20
76.226765997063893
10
101.40698426176316
20
71.226765997063936
42
0.41421356237309331
10
104.40698426176317
20
68.226765997063907
10
109.40698426176313
20
68.226765997063893
42
0.41421356237309503
0
CIRCLE
5
161
100
AcDbEntity
8
INTERIOR_PROFILES
100
AcDbCircle
10
-160.976
20
59.999999999999986
30
0
40
2.5
210
0
220
0
230
-1
0
CIRCLE
5
162
100
AcDbEntity
8
INTERIOR_PROFILES
100
AcDbCircle
10
-130.976
20
86.249999999999986
30
0
40
1.5499999999999936
210
0
220
0
230
-1
0
CIRCLE
5
163
100
AcDbEntity
8
INTERIOR_PROFILES
100
AcDbCircle
10
-160.976
20
13.749999999999982
30
0
40
1.5500000000000114
210
0
220
0
230
-1
0
CIRCLE
5
164
100
AcDbEntity
8
INTERIOR_PROFILES
100
AcDbCircle
10
-117.40698426176316
20
89.726765997063907
30
0
40
1.5499999999999936
210
0
220
0
230
-1
0
CIRCLE
5
165
100
AcDbEntity
8
INTERIOR_PROFILES
100
AcDbCircle
10
-194.72599999999994
20
74.999999999999986
30
0
40
1.4999999999999858
210
0
220
0
230
-1
0
CIRCLE
5
166
100
AcDbEntity
8
INTERIOR_PROFILES
100
AcDbCircle
10
-194.72599999999994
20
25
30
0
40
1.4999999999999858
210
0
220
0
230
-1
0
CIRCLE
5
167
100
AcDbEntity
8
INTERIOR_PROFILES
100
AcDbCircle
10
-80.406984261763171
20
9.7267659970638931
30
0
40
1.5500000000000025
210
0
220
0
230
-1
0
CIRCLE
5
168
100
AcDbEntity
8
INTERIOR_PROFILES
100
AcDbCircle
10
-5.2740000000000009
20
25
30
0
40
1.5000000000000124
210
0
220
0
230
-1
0
CIRCLE
5
169
100
AcDbEntity
8
INTERIOR_PROFILES
100
AcDbCircle
10
-5.2740000000000009
20
74.999999999999986
30
0
40
1.5000000000000124
210
0
220
0
230
-1
0
CIRCLE
5
170
100
AcDbEntity
8
INTERIOR_PROFILES
100
AcDbCircle
10
-53.047999999999753
20
43.226765997064135
30
0
40
1.5499999999999936
210
0
220
0
230
-1
0
CIRCLE
5
171
100
AcDbEntity
8
INTERIOR_PROFILES
100
AcDbCircle
10
-53.047999999999753
20
56.773234002935823
30
0
40
1.5500000000000114
210
0
220
0
230
-1
0
ENDSEC
0
SECTION
2
OBJECTS
0
DICTIONARY
5
C
100
AcDbDictionary
3
ACAD_GROUP
350
D
3
ACAD_MLINESTYLE
350
17
0
DICTIONARY
5
D
100
AcDbDictionary
0
DICTIONARY
5
1A
330
C
100
AcDbDictionary
0
DICTIONARY
5
17
100
AcDbDictionary
0
ENDSEC
0
EOF
