0
SECTION
2
HEADER
9
$INSUNITS
70
4
9
$ACADVER
1
AC1014
9
$HANDSEED
5
FFFF
0
ENDSEC
0
SECTION
2
TABLES
0
TABLE
2
VPORT
5
8
100
AcDbSymbolTable
0
ENDTAB
0
TABLE
2
LTYPE
5
5
100
AcDbSymbolTable
0
LTYPE
5
14
100
AcDbSymbolTableRecord
100
AcDbLinetypeTableRecord
2
BYBLOCK
70
0
0
LTYPE
5
15
100
AcDbSymbolTableRecord
100
AcDbLinetypeTableRecord
2
BYLAYER
70
0
0
ENDTAB
0
TABLE
2
LAYER
5
2
100
AcDbSymbolTable
70
2
0
LAYER
5
50
100
AcDbSymbolTableRecord
100
AcDbLayerTableRecord
2
0
70
0
6
CONTINUOUS
0
ENDTAB
0
TABLE
2
STYLE
5
3
100
AcDbSymbolTable
70
1
0
STYLE
5
11
100
AcDbSymbolTableRecord
100
AcDbTextStyleTableRecord
2
STANDARD
70
0
0
ENDTAB
0
TABLE
2
VIEW
5
6
100
AcDbSymbolTable
70
0
0
ENDTAB
0
TABLE
2
UCS
5
7
100
AcDbSymbolTable
70
0
0
ENDTAB
0
TABLE
2
APPID
5
9
100
AcDbSymbolTable
70
2
0
APPID
5
12
100
AcDbSymbolTableRecord
100
AcDbRegAppTableRecord
2
ACAD
70
0
0
ENDTAB
0
TABLE
2
DIMSTYLE
5
A
100
AcDbSymbolTable
70
1
0
ENDTAB
0
TABLE
2
BLOCK_RECORD
5
1
100
AcDbSymbolTable
70
1
0
BLOCK_RECORD
5
1F
100
AcDbSymbolTableRecord
100
AcDbBlockTableRecord
2
*MODEL_SPACE
0
BLOCK_RECORD
5
1B
100
AcDbSymbolTableRecord
100
AcDbBlockTableRecord
2
*PAPER_SPACE
0
ENDTAB
0
ENDSEC
0
SECTION
2
BLOCKS
0
BLOCK
5
20
100
AcDbEntity
100
AcDbBlockBegin
2
*MODEL_SPACE
0
ENDBLK
5
21
100
AcDbEntity
100
AcDbBlockEnd
0
BLOCK
5
1C
100
AcDbEntity
100
AcDbBlockBegin
2
*PAPER_SPACE
0
ENDBLK
5
1D
100
AcDbEntity
100
AcDbBlockEnd
0
ENDSEC
0
SECTION
2
ENTITIES
0
LWPOLYLINE
5
100
100
AcDbEntity
8
OUTER_PROFILES
100
AcDbPolyline
90
18
70
1
43
0.0
10
-15.149206786930502
20
46.351206786930973
10
-10.947206786930987
20
46.351206786930987
10
-10.947206786930987
20
43.303206786930986
10
-7.4999999999999822
20
43.303206786930986
10
-7.4999999999998055
20
50.202413573862046
42
-0.41421356237309503
10
1.9539925233402755e-13
20
57.702413573861975
10
101.95199999999993
20
57.702413573862131
42
-0.41421356237309853
10
109.45199999999994
20
50.20241357386206
10
109.45199999999984
20
7.4999999999999512
42
-0.4142135623730952
10
101.95199999999984
20
-5.3290705182007514e-14
10
-5.5511151231257827e-16
20
0
42
-0.41421356237309159
10
-7.4999999999999822
20
7.4999999999999289
10
-7.4999999999999822
20
14.399206786930989
10
-10.947206786930987
20
14.399206786930989
10
-10.947206786930987
20
11.351206786930987
10
-15.149206786930501
20
11.351206786930987
42
-0.41421356237309503
10
-22.649206786930502
20
18.851206786930984
10
-22.649206786930502
20
38.851206786930973
42
-0.41421356237309503
0
CIRCLE
5
101
100
AcDbEntity
8
INTERIOR_PROFILES
100
AcDbCircle
10
-103.45200000000003
20
41.351206786931002
30
0
40
1.2000000000000099
210
0
220
0
230
-1
0
CIRCLE
5
102
100
AcDbEntity
8
INTERIOR_PROFILES
100
AcDbCircle
10
-56.452000000000027
20
38.601206786931009
30
0
40
1.1999999999999922
210
0
220
0
230
-1
0
CIRCLE
5
103
100
AcDbEntity
8
INTERIOR_PROFILES
100
AcDbCircle
10
-41.952000000000005
20
32.351206786927669
30
0
40
1.6000000000000014
210
0
220
0
230
-1
0
CIRCLE
5
104
100
AcDbEntity
8
INTERIOR_PROFILES
100
AcDbCircle
10
-103.45200000000003
20
16.351206786931005
30
0
40
1.2000000000000099
210
0
220
0
230
-1
0
CIRCLE
5
105
100
AcDbEntity
8
INTERIOR_PROFILES
100
AcDbCircle
10
-3.4520000000000017
20
39.351206786927655
30
0
40
1.6000000000000014
210
0
220
0
230
-1
0
CIRCLE
5
106
100
AcDbEntity
8
INTERIOR_PROFILES
100
AcDbCircle
10
-93.452000000000027
20
38.601206786931016
30
0
40
1.1999999999999922
210
0
220
0
230
-1
0
CIRCLE
5
107
100
AcDbEntity
8
INTERIOR_PROFILES
100
AcDbCircle
10
-93.452000000000027
20
19.101206786931023
30
0
40
1.2000000000000099
210
0
220
0
230
-1
0
CIRCLE
5
108
100
AcDbEntity
8
INTERIOR_PROFILES
100
AcDbCircle
10
-56.452000000000027
20
19.101206786931016
30
0
40
1.2000000000000099
210
0
220
0
230
-1
0
CIRCLE
5
109
100
AcDbEntity
8
INTERIOR_PROFILES
100
AcDbCircle
10
-38.452000000000019
20
16.351206786930994
30
0
40
1.2000000000000099
210
0
220
0
230
-1
0
CIRCLE
5
110
100
AcDbEntity
8
INTERIOR_PROFILES
100
AcDbCircle
10
-38.452000000000019
20
41.351206786930994
30
0
40
1.2000000000000099
210
0
220
0
230
-1
0
CIRCLE
5
111
100
AcDbEntity
8
INTERIOR_PROFILES
100
AcDbCircle
10
-18.649206786930943
20
22.077972783991804
30
0
40
1.5500000000000114
210
0
220
0
230
1
0
CIRCLE
5
112
100
AcDbEntity
8
INTERIOR_PROFILES
100
AcDbCircle
10
-18.649206786930943
20
35.624440789863492
30
0
40
1.5499999999999936
210
0
220
0
230
1
0
LINE
5
113
100
AcDbEntity
8
BEND
100
AcDbLine
10
109.45199999999994
20
45.026810180396552
30
5.3662014595988669e-13
11
-7.4999999999998046
21
45.026810180396531
31
5.5680413852291937e-13
0
LINE
5
114
100
AcDbEntity
8
BEND
100
AcDbLine
10
-7.4999999999999822
20
12.675603393465543
30
5.0109256087058445e-13
11
109.45199999999986
21
12.675603393465561
31
3.7458063841725264e-13
0
LINE
5
115
100
AcDbEntity
8
BEND
100
AcDbLine
10
-9.2236033934654316
20
14.399206786931025
30
4.9844897295267353e-13
11
-9.2236033934654316
21
43.303206786930986
31
4.9844897295267353e-13
0
LINE
5
116
100
AcDbEntity
8
BEND_EXTENT
100
AcDbLine
10
-10.947206786930987
20
14.399206786930989
30
5.2983920975683002e-13
11
-10.947206786930987
21
43.303206786930986
31
5.2983920975683002e-13
0
LINE
5
117
100
AcDbEntity
8
BEND_EXTENT
100
AcDbLine
10
-7.4999999999998046
20
46.750413573861991
30
5.6901659179379609e-13
11
109.45199999999997
21
46.750413573862076
31
5.4217126108301247e-13
0
LINE
5
118
100
AcDbEntity
8
BEND_EXTENT
100
AcDbLine
10
109.45200000000001
20
43.303206786931
30
5.5993482947701498e-13
11
-7.4999999999999822
21
43.303206786930986
31
5.6901659179379609e-13
0
LINE
5
119
100
AcDbEntity
8
BEND_EXTENT
100
AcDbLine
10
-7.4999999999999822
20
43.303206786930986
30
5.6901659179379609e-13
11
-7.4999999999999822
21
14.399206786930989
31
5.6901659179379609e-13
0
LINE
5
120
100
AcDbEntity
8
BEND_EXTENT
100
AcDbLine
10
-7.4999999999999822
20
14.399206786930989
30
5.6901659179379609e-13
11
109.45200000000001
21
14.399206786931007
31
5.5993482947701498e-13
0
LINE
5
121
100
AcDbEntity
8
BEND_EXTENT
100
AcDbLine
10
109.45199999999987
20
10.951999999999931
30
4.1782628232499494e-13
11
-7.4999999999999822
21
10.951999999999913
31
3.9138090785377105e-13
0
ENDSEC
0
SECTION
2
OBJECTS
0
DICTIONARY
5
C
100
AcDbDictionary
3
ACAD_GROUP
350
D
3
ACAD_MLINESTYLE
350
17
0
DICTIONARY
5
D
100
AcDbDictionary
0
DICTIONARY
5
1A
330
C
100
AcDbDictionary
0
DICTIONARY
5
17
100
AcDbDictionary
0
ENDSEC
0
EOF
